<svg xmlns="http://www.w3.org/2000/svg" xmlns:xlink="http://www.w3.org/1999/xlink" width="500" zoomAndPan="magnify" viewBox="0 0 375 374.999991" height="500" preserveAspectRatio="xMidYMid meet" version="1.0"><defs><clipPath id="9925292441"><path d="M 32.289062 2.308594 L 347.164062 2.308594 L 347.164062 374.148438 L 32.289062 374.148438 Z M 32.289062 2.308594 " clip-rule="nonzero"/></clipPath></defs><g clip-path="url(#9925292441)"><path fill="#7f0020" d="M 315.484375 33.757812 C 273.523438 -1.019531 195.410156 2.441406 188.105469 2.375 C 181.019531 2.679688 101.703125 0.5625 61.324219 36.089844 C 16.554688 75.476562 26.472656 166.523438 71.121094 241.722656 C 115.269531 316.078125 168.65625 368.824219 191.132812 374.050781 C 191.132812 374.050781 191.394531 374.175781 191.519531 374.148438 C 191.640625 374.171875 191.902344 374.042969 191.902344 374.042969 C 214.277344 368.40625 266.683594 314.683594 309.464844 239.535156 C 352.722656 163.53125 364.09375 74.042969 315.484375 33.757812 " fill-opacity="1" fill-rule="nonzero"/></g><path fill="#ffffff" d="M 121.730469 299.070312 C 121.730469 299.070312 54.714844 218.027344 44.582031 132.308594 C 34.453125 46.589844 97.574219 19.316406 149.003906 17.753906 C 149.003906 17.753906 73.480469 21.179688 53.066406 77.039062 C 33.15625 131.527344 61.59375 211.015625 121.730469 299.070312 " fill-opacity="1" fill-rule="nonzero"/><path fill="#ffffff" d="M 192.644531 362.191406 C 192.644531 362.191406 317.328125 277.253906 336.804688 122.957031 C 336.804688 122.957031 324.558594 251.984375 192.644531 362.191406 " fill-opacity="1" fill-rule="nonzero"/><path fill="#ffffff" d="M 189.09375 68.988281 L 240.292969 66.085938 L 210.898438 120.242188 L 239.691406 121.566406 L 172.007812 239.378906 L 194.546875 141.789062 L 163.28125 141.332031 L 189.09375 68.988281 " fill-opacity="1" fill-rule="nonzero"/><path fill="#ffffff" d="M 151.09375 149.792969 L 183.726562 150.269531 L 150.488281 294.171875 L 254.234375 113.589844 L 225.0625 112.246094 L 255.269531 56.589844 L 182.882812 60.691406 Z M 144.339844 309.832031 L 180.632812 152.691406 L 147.613281 152.210938 L 181.109375 58.320312 L 259.550781 53.875 L 229.113281 109.964844 L 258.386719 111.308594 L 144.339844 309.832031 " fill-opacity="1" fill-rule="nonzero"/></svg>