<svg xmlns="http://www.w3.org/2000/svg" xmlns:xlink="http://www.w3.org/1999/xlink" width="500" zoomAndPan="magnify" viewBox="0 0 375 374.999991" height="500" preserveAspectRatio="xMidYMid meet" version="1.0"><defs><clipPath id="a928efcbc6"><path d="M 47.035156 1 L 340.285156 1 L 340.285156 375 L 47.035156 375 Z M 47.035156 1 " clip-rule="nonzero"/></clipPath></defs><g clip-path="url(#a928efcbc6)"><path fill="#9c0000" d="M 334.476562 36.359375 C 331.117188 32.015625 324.617188 26.753906 312.746094 26.355469 C 291.605469 25.640625 281.652344 42.695312 279.054688 53.019531 C 269.738281 81.507812 258.992188 124.640625 250.65625 160.25 C 251.230469 152.046875 251.949219 141.757812 251.949219 141.757812 C 251.953125 141.6875 251.957031 141.621094 251.957031 141.554688 L 251.957031 141.304688 C 251.957031 133.242188 249.265625 126.292969 244.179688 121.207031 C 235.738281 112.769531 223.859375 112.523438 222.53125 112.523438 L 222.417969 112.523438 L 222.222656 112.527344 C 212.089844 112.84375 205.421875 116.394531 201.125 120.300781 C 199.644531 116.566406 197.601562 113.246094 194.953125 110.441406 C 189.320312 104.472656 181.6875 101.285156 172.261719 100.964844 C 170.488281 100.847656 160.808594 100.628906 152.703125 107.960938 C 146.589844 113.492188 143.320312 121.488281 142.972656 131.714844 C 142.972656 131.726562 142.964844 131.738281 142.964844 131.75 C 142.964844 131.75 142.28125 144.300781 141.628906 156.34375 C 128.707031 108.085938 108.5 38.34375 107.535156 35.019531 C 102.929688 19.144531 95.679688 8.785156 85.996094 4.226562 C 77.757812 0.351562 70.632812 2.023438 67.828125 2.976562 C 60.683594 4.554688 55.015625 8.460938 51.4375 14.292969 C 48.515625 19.054688 47.035156 24.964844 47.035156 31.855469 C 47.035156 39.207031 48.761719 45.347656 49.109375 46.503906 L 49.152344 46.648438 C 67.902344 105.640625 85.136719 174.601562 88.679688 188.972656 C 88.605469 189.859375 85.988281 222.152344 85.878906 223.503906 L 63.625 257.605469 C 63.316406 258.078125 63.15625 258.632812 63.15625 259.1875 C 63.15625 259.480469 63.199219 259.773438 63.289062 260.054688 L 98.707031 372.5625 C 99.085938 373.769531 100.203125 374.589844 101.46875 374.589844 L 267.082031 374.589844 C 268.347656 374.589844 269.46875 373.765625 269.84375 372.558594 L 297.464844 284.171875 C 297.550781 283.90625 297.59375 283.632812 297.597656 283.359375 L 297.617188 282.316406 C 298.027344 258.714844 303.652344 226.746094 303.886719 225.398438 L 303.914062 225.238281 C 310.753906 182.554688 330.613281 100.316406 337.136719 73.292969 L 339.035156 65.363281 C 339.546875 63.089844 340.1875 59.367188 340.1875 55.078125 C 340.1875 49.164062 338.964844 42.15625 334.476562 36.359375 Z M 334.476562 36.359375 " fill-opacity="1" fill-rule="nonzero"/></g><path fill="#ffffff" d="M 97.128906 210.121094 L 108.703125 191.308594 L 140.195312 191.644531 C 131.316406 153.429688 97.808594 37.847656 97.808594 37.847656 C 88.300781 5.089844 70.761719 12.6875 70.761719 12.6875 C 50.660156 16.351562 58.8125 43.609375 58.8125 43.609375 C 77.988281 103.949219 95.207031 173.082031 98.90625 188.160156 L 97.128906 210.125 Z M 312.570312 35.195312 C 295.089844 33.605469 288.746094 55.976562 288.746094 55.976562 C 270.640625 111.257812 246.972656 222.816406 246.871094 223.433594 C 239.582031 268.003906 212.890625 264.789062 212.890625 264.789062 C 198.097656 265.433594 189.097656 253.214844 189.097656 253.214844 L 185.238281 257.074219 C 213.535156 276.363281 213.324219 314.90625 212.886719 317.523438 C 212.246094 321.382812 207.824219 321.304688 207.824219 321.304688 C 203.324219 320.660156 202.601562 317.523438 202.601562 317.523438 C 197.457031 242.28125 129.285156 251.925781 129.285156 251.925781 C 121.007812 248.230469 127.359375 241.636719 127.359375 241.636719 C 156.296875 236.492188 177.519531 249.355469 177.519531 249.355469 C 221.25 213.984375 181.378906 199.191406 181.378906 199.191406 L 113.851562 199.191406 L 73.980469 260.289062 L 106.777344 364.472656 L 261.773438 364.472656 L 287.496094 282.152344 C 287.933594 257.113281 293.925781 223.628906 293.925781 223.628906 C 301.941406 173.59375 327.863281 68.980469 329.167969 63.132812 C 330.476562 57.289062 333.800781 37.136719 312.578125 35.207031 Z M 194.882812 245.496094 C 202.601562 257.714844 213.535156 255.144531 213.535156 255.144531 C 234.753906 253.855469 236.039062 224.273438 236.039062 224.273438 L 241.828125 141.3125 C 241.828125 122.664062 222.535156 122.664062 222.535156 122.664062 C 201.957031 123.304688 201.957031 140.667969 201.957031 140.667969 L 198.097656 198.550781 C 221.894531 221.058594 194.882812 245.496094 194.882812 245.496094 Z M 193.597656 133.59375 C 193.597656 133.59375 194.242188 111.730469 171.730469 111.085938 C 171.730469 111.085938 153.726562 109.800781 153.082031 132.308594 L 149.867188 191.476562 L 188.773438 191.316406 Z M 193.597656 133.59375 " fill-opacity="1" fill-rule="nonzero"/></svg>