<svg xmlns="http://www.w3.org/2000/svg" xmlns:xlink="http://www.w3.org/1999/xlink" width="500" zoomAndPan="magnify" viewBox="0 0 375 374.999991" height="500" preserveAspectRatio="xMidYMid meet" version="1.0"><defs><clipPath id="c7f5dcd905"><path d="M 37.5 37.5 L 348.75 37.5 L 348.75 348.75 L 37.5 348.75 Z M 37.5 37.5 " clip-rule="nonzero"/></clipPath><clipPath id="bd82c80d96"><path d="M 148 10.015625 L 238 10.015625 L 238 152 L 148 152 Z M 148 10.015625 " clip-rule="nonzero"/></clipPath></defs><g clip-path="url(#c7f5dcd905)"><path fill="#922525" d="M 115.339844 37.460938 C 72.375 37.460938 37.539062 72.296875 37.539062 115.265625 L 37.539062 270.875 C 37.539062 313.839844 72.375 348.675781 115.339844 348.675781 L 270.949219 348.675781 C 313.917969 348.675781 348.753906 313.839844 348.753906 270.875 L 348.753906 115.265625 C 348.753906 72.296875 313.917969 37.460938 270.949219 37.460938 Z M 115.339844 37.460938 " fill-opacity="1" fill-rule="nonzero"/></g><path fill="#ffffff" d="M 298.035156 157.40625 C 284.785156 129.117188 265.019531 109.679688 239.285156 99.53125 C 235.277344 120.597656 228.015625 139.59375 217.359375 156.8125 C 216.910156 157.539062 216.167969 158.027344 215.320312 158.144531 C 215.191406 158.164062 215.058594 158.171875 214.925781 158.171875 C 214.214844 158.171875 213.527344 157.910156 212.996094 157.425781 C 212.96875 157.402344 207.445312 152.785156 193.105469 152.785156 C 178.707031 152.785156 173.269531 157.378906 173.21875 157.425781 C 172.585938 157.996094 171.726562 158.269531 170.890625 158.144531 C 170.046875 158.027344 169.296875 157.539062 168.851562 156.8125 C 158.199219 139.59375 150.9375 120.597656 146.929688 99.53125 C 121.191406 109.683594 101.425781 129.117188 88.179688 157.40625 C 60.453125 216.605469 91.480469 278.042969 96.664062 284.1875 C 101.324219 289.710938 109.117188 292.480469 114.832031 293.828125 C 122.425781 295.617188 128.003906 302.300781 128.390625 310.085938 L 130.601562 354.683594 C 130.6875 356.464844 132.152344 357.855469 133.9375 357.855469 L 142.480469 357.855469 C 144.320312 357.855469 145.824219 356.359375 145.824219 354.515625 L 145.824219 337.992188 C 145.824219 332.832031 150.019531 328.632812 155.179688 328.632812 C 160.339844 328.632812 164.535156 332.832031 164.535156 337.992188 L 164.535156 354.886719 C 164.535156 356.519531 165.863281 357.855469 167.503906 357.855469 L 179.335938 357.855469 C 180.972656 357.855469 182.304688 356.519531 182.304688 354.886719 L 182.304688 345.683594 C 182.304688 339.726562 187.152344 334.878906 193.105469 334.878906 C 199.0625 334.878906 203.910156 339.722656 203.910156 345.683594 L 203.910156 354.886719 C 203.910156 356.519531 205.238281 357.855469 206.875 357.855469 L 218.710938 357.855469 C 220.347656 357.855469 221.679688 356.519531 221.679688 354.886719 L 221.679688 337.992188 C 221.679688 332.832031 225.875 328.632812 231.035156 328.632812 C 236.191406 328.632812 240.390625 332.832031 240.390625 337.992188 L 240.390625 354.515625 C 240.390625 356.359375 241.886719 357.855469 243.734375 357.855469 L 252.273438 357.855469 C 254.058594 357.855469 255.523438 356.464844 255.613281 354.683594 L 257.824219 310.085938 C 258.210938 302.300781 263.785156 295.617188 271.378906 293.828125 C 277.097656 292.476562 284.890625 289.710938 289.550781 284.1875 C 294.730469 278.042969 325.757812 216.605469 298.035156 157.40625 Z M 169.585938 238.316406 L 165.332031 246.25 C 162.417969 251.683594 156.226562 254.496094 150.207031 253.164062 C 135.683594 249.953125 123.636719 244.164062 115.003906 234.816406 C 113.003906 232.65625 111.738281 229.898438 111.390625 226.976562 C 110.648438 220.796875 110.984375 215.105469 112.398438 209.902344 C 114.746094 201.234375 124.703125 197.160156 132.488281 201.632812 L 164.335938 219.9375 C 170.765625 223.636719 173.09375 231.777344 169.585938 238.316406 Z M 213.589844 303.5 C 209.160156 308.039062 201.707031 303.945312 197.121094 300.601562 C 194.714844 298.851562 191.496094 298.851562 189.09375 300.601562 C 184.503906 303.945312 177.054688 308.039062 172.625 303.5 C 167.964844 298.726562 179.535156 275.929688 187.125 262.308594 C 189.738281 257.621094 196.476562 257.621094 199.085938 262.308594 C 206.675781 275.929688 218.25 298.726562 213.589844 303.5 Z M 274.824219 226.976562 C 274.476562 229.898438 273.210938 232.65625 271.214844 234.816406 C 262.578125 244.164062 250.53125 249.953125 236.011719 253.164062 C 229.992188 254.496094 223.796875 251.683594 220.882812 246.25 L 216.628906 238.316406 C 213.121094 231.777344 215.449219 223.636719 221.882812 219.9375 L 253.726562 201.636719 C 261.511719 197.164062 271.46875 201.238281 273.816406 209.90625 C 275.226562 215.105469 275.566406 220.796875 274.824219 226.976562 Z M 274.824219 226.976562 " fill-opacity="1" fill-rule="nonzero"/><g clip-path="url(#bd82c80d96)"><path fill="#ffffff" d="M 193.105469 147.058594 C 203.972656 147.058594 210.59375 149.507812 213.996094 151.3125 C 231.488281 121.816406 239.011719 86.929688 236.933594 44.910156 C 227.832031 52.179688 221.292969 62.066406 217.46875 74.375 C 217.027344 75.78125 215.609375 76.625 214.152344 76.332031 C 212.710938 76.035156 211.726562 74.695312 211.882812 73.226562 C 214.355469 49.667969 208.210938 28.953125 193.105469 10.015625 C 178 28.953125 171.855469 49.667969 174.328125 73.226562 C 174.484375 74.726562 173.453125 76.089844 171.972656 76.347656 C 170.492188 76.59375 169.058594 75.675781 168.695312 74.210938 C 165.371094 60.695312 157.144531 51.65625 149.265625 45.144531 C 147.222656 87.0625 154.753906 121.875 172.214844 151.316406 C 175.617188 149.507812 182.242188 147.058594 193.105469 147.058594 Z M 193.105469 147.058594 " fill-opacity="1" fill-rule="nonzero"/></g></svg>